<?xml version="1.0" encoding="UTF-8" standalone="no"?>
<svg id="svg2424" xmlns="http://www.w3.org/2000/svg" viewBox="0 0 166.16 166.19">
  <g
     style="fill:#ffc107"
     id="g65"
     transform="matrix(6.06,0,0,-6.06,80.54,165.8199)"><path
       d="m 11.03125,6.9922 q 0,-0.2109 -0.14063,-0.3516 L 8.0625,3.8125 7.35156,3.1016 Q 7.21094,2.9609 7,2.9609 q -0.21094,0 -0.35156,0.1407 L 5.9375,3.8125 3.10937,6.6406 q -0.14062,0.1407 -0.14062,0.3516 0,0.2109 0.14062,0.3516 l 0.71094,0.7109 q 0.14063,0.1406 0.35156,0.1406 0.21094,0 0.35157,-0.1406 L 6,6.5781 V 10.5 Q 6,10.7031 6.14844,10.8516 6.29687,11 6.5,11 h 1 Q 7.70312,11 7.85156,10.8516 8,10.7031 8,10.5 V 6.5781 l 1.47656,1.4766 q 0.14844,0.1484 0.35156,0.1484 0.20313,0 0.35157,-0.1484 L 10.89062,7.3438 Q 11.03125,7.2031 11.03125,6.9922 Z M 13,7 q 0,1.6328 -0.80469,3.0117 -0.80469,1.3789 -2.18359,2.1836 Q 8.63281,13 7,13 5.36719,13 3.98828,12.1953 2.60937,11.3906 1.80469,10.0117 1,8.6328 1,7 1,5.3672 1.80469,3.9883 2.60937,2.6094 3.98828,1.8047 5.36719,1 7,1 8.63281,1 10.01172,1.8047 11.39062,2.6094 12.19531,3.9883 13,5.3672 13,7 Z"
       id="path65"
       style="fill:#ffc107" /></g><path
     class="cls-1"
     d="m 148.34,156.35 c 5.65,2.96 11.56,6.23 17.82,9.84 -3.5,-6.44 -6.73,-12.43 -9.83,-18.18 -2.27,3.14 -4.97,5.94 -7.99,8.33 z"
     id="path66"
     style="fill:#000000" /><path
     class="cls-1"
     d="M 120.65,80.93 C 99.5,40.04 94.63,27.15 83.06,0 75.66,18.14 71.2,30 62.97,47.59 68.02,52.94 74.22,59.18 84.28,66.21 73.46,61.76 66.08,57.29 60.56,52.65 50.02,74.64 33.51,105.97 0,166.18 26.34,150.97 46.75,141.6 65.78,138.02 64.96,134.51 64.5,130.7 64.53,126.74 l 0.03,-0.84 c 0.42,-16.87 9.2,-29.85 19.59,-28.97 1.63,0.14 3.21,0.61 4.7,1.37 7.22,-10.05 18.72,-16.76 31.79,-17.38 z"
     id="path67"
     style="fill:#000000" />
</svg>
