<?xml version="1.0" encoding="UTF-8" standalone="no"?>
<svg
   id="svg2424"
   viewBox="0 0 166.16002 166.19"
   version="1.1"
   xml:space="preserve"
   width="166.16002"
   height="166.19"
   xmlns="http://www.w3.org/2000/svg"
   xmlns:svg="http://www.w3.org/2000/svg"><defs
     id="defs1"><style
       id="style1">
      .cls-1 {
        fill: #1793d1;
      }

      .cls-1, .cls-2 {
        stroke-width: 0px;
      }

      .cls-2 {
        fill: #f93a30;
      }
    </style></defs><path
     id="path62"
     style="fill:#000000;fill-opacity:1"
     d="m 83.060547,0 c -7.4,18.14 -11.859844,29.999844 -20.089844,47.589844 5.05,5.35 11.248594,11.591094 21.308594,18.621094 -10.82,-4.450001 -18.19875,-8.920547 -23.71875,-13.560547 C 50.020547,74.640391 33.51002,105.96969 0,166.17969 c 26.34002,-15.21 46.749297,-24.58016 65.779297,-28.16016 -0.82,-3.51 -1.28,-7.3193 -1.25,-11.2793 l 0.03125,-0.83984 c 0.42,-16.87 9.199844,-29.850702 19.589844,-28.970702 1.63,0.14 3.209218,0.611093 4.699218,1.371093 7.22,-10.05 18.721011,-16.760859 31.791011,-17.380859 l 0.01,0.0098 C 99.500391,40.039687 94.630547,27.15 83.060547,0 Z m 39.898433,87.039062 c -6.5965,0 -12.6792,1.625954 -18.25,4.876954 -5.570796,3.251 -9.981517,7.661722 -13.232418,13.232424 -3.2509,5.5708 -4.876953,11.65545 -4.876953,18.25195 0,6.5965 1.626054,12.6792 4.876953,18.25 3.250901,5.5707 7.661622,9.98142 13.232418,13.23242 5.5708,3.251 11.6535,4.87696 18.25,4.87696 6.5966,0 12.68116,-1.62596 18.25196,-4.87696 5.5707,-3.251 9.98152,-7.66172 13.23242,-13.23242 3.251,-5.5708 4.87695,-11.6535 4.87695,-18.25 0,-6.5965 -1.62595,-12.68115 -4.87695,-18.25195 -3.2509,-5.570703 -7.66172,-9.981424 -13.23242,-13.232424 -5.5708,-3.251 -11.65536,-4.876953 -18.25196,-4.876954 z m 19.05664,17.468748 c 0.93581,0 1.73162,0.32732 2.38672,0.98242 l 4.77149,4.77149 c 0.655,0.6549 0.98242,1.45082 0.98242,2.38672 0,0.9359 -0.32742,1.73152 -0.98242,2.38672 l -25.40821,25.4082 -4.77148,4.77148 c -0.6551,0.6552 -1.45092,0.98438 -2.38672,0.98438 -0.9359,0 -1.73172,-0.32918 -2.38672,-0.98438 l -4.77148,-4.77148 -12.705079,-12.70508 c -0.6551,-0.6549 -0.982422,-1.44886 -0.982422,-2.38476 0,-0.9359 0.327322,-1.73152 0.982422,-2.38672 l 4.773439,-4.77344 c 0.6551,-0.6549 1.45082,-0.98242 2.38672,-0.98242 0.9358,0 1.72966,0.32752 2.38476,0.98242 l 10.31836,10.35352 23.02149,-23.05665 c 0.655,-0.6551 1.45081,-0.98242 2.38671,-0.98242 z m 14.31446,43.50196 c -2.27,3.14 -4.97024,5.94007 -7.99024,8.33007 v 0.01 c 5.65,2.96 11.56032,6.22984 17.82032,9.83984 -3.5,-6.44 -6.73008,-12.42968 -9.83008,-18.17968 z" /></svg>
