<?xml version="1.0" encoding="UTF-8" standalone="no"?>
<svg id="svg2424" xmlns="http://www.w3.org/2000/svg" viewBox="0 0 166.16 166.19">
  <path id="path62" style="fill:#1793d1"
    d="M 83.060547 0 C 75.660547 18.14 71.200703 29.999844 62.970703 47.589844 C 68.020703 52.939844 74.219297 59.180938 84.279297 66.210938 C 73.459297 61.760937 66.080547 57.290391 60.560547 52.650391 C 50.020547 74.640391 33.51002 105.96969 0 166.17969 C 26.34002 150.96969 46.749297 141.59953 65.779297 138.01953 C 64.959297 134.50953 64.499297 130.70023 64.529297 126.74023 L 64.560547 125.90039 C 64.980547 109.03039 73.760391 96.049688 84.150391 96.929688 C 85.780391 97.069688 87.359609 97.540781 88.849609 98.300781 C 96.069609 88.250781 107.57062 81.539922 120.64062 80.919922 L 120.65039 80.929688 C 99.500391 40.039687 94.630547 27.15 83.060547 0 z M 122.95898 87.039062 C 116.36248 87.039062 110.27978 88.665016 104.70898 91.916016 C 99.138184 95.167016 94.727463 99.577738 91.476562 105.14844 C 88.225662 110.71924 86.599609 116.80389 86.599609 123.40039 C 86.599609 129.99689 88.225663 136.07959 91.476562 141.65039 C 94.727463 147.22109 99.138184 151.63181 104.70898 154.88281 C 110.27978 158.13381 116.36248 159.75977 122.95898 159.75977 C 129.55558 159.75977 135.64014 158.13381 141.21094 154.88281 C 146.78164 151.63181 151.19246 147.22109 154.44336 141.65039 C 157.69436 136.07959 159.32031 129.99689 159.32031 123.40039 C 159.32031 116.80389 157.69436 110.71924 154.44336 105.14844 C 151.19246 99.577737 146.78164 95.167016 141.21094 91.916016 C 135.64014 88.665016 129.55558 87.039063 122.95898 87.039062 z M 142.01562 104.50781 C 142.95143 104.50781 143.74724 104.83513 144.40234 105.49023 L 149.17383 110.26172 C 149.82883 110.91662 150.15625 111.71254 150.15625 112.64844 C 150.15625 113.58434 149.82883 114.37996 149.17383 115.03516 L 123.76562 140.44336 L 118.99414 145.21484 C 118.33904 145.87004 117.54322 146.19922 116.60742 146.19922 C 115.67152 146.19922 114.8757 145.87004 114.2207 145.21484 L 109.44922 140.44336 L 96.744141 127.73828 C 96.089041 127.08338 95.761719 126.28942 95.761719 125.35352 C 95.761719 124.41762 96.089041 123.622 96.744141 122.9668 L 101.51758 118.19336 C 102.17268 117.53846 102.9684 117.21094 103.9043 117.21094 C 104.8401 117.21094 105.63396 117.53846 106.28906 118.19336 L 116.60742 128.54688 L 139.62891 105.49023 C 140.28391 104.83513 141.07972 104.50781 142.01562 104.50781 z M 156.33008 148.00977 C 154.06008 151.14977 151.35984 153.94984 148.33984 156.33984 L 148.33984 156.34961 C 153.98984 159.30961 159.90016 162.57945 166.16016 166.18945 C 162.66016 159.74945 159.43008 153.75977 156.33008 148.00977 z " />
</svg>
