<?xml version="1.0" encoding="UTF-8"?>
<svg id="svg2424" xmlns="http://www.w3.org/2000/svg" viewBox="0 0 166.16 166.19">
  <defs>
    <style>
      .cls-1 {
        fill: #1793d1;
      }

      .cls-1, .cls-2 {
        stroke-width: 0px;
      }

      .cls-2 {
        fill: #f93a30;
      }
    </style>
  </defs>
  <g id="layer1">
    <g>
      <path class="cls-1" d="M148.34,156.35c5.65,2.96,11.56,6.23,17.82,9.84-3.5-6.44-6.73-12.43-9.83-18.18-2.27,3.14-4.97,5.94-7.99,8.33Z"/>
      <path class="cls-1" d="M120.65,80.93C99.5,40.04,94.63,27.15,83.06,0c-7.4,18.14-11.86,30-20.09,47.59,5.05,5.35,11.25,11.59,21.31,18.62-10.82-4.45-18.2-8.92-23.72-13.56-10.54,21.99-27.05,53.32-60.56,113.53,26.34-15.21,46.75-24.58,65.78-28.16-.82-3.51-1.28-7.32-1.25-11.28l.03-.84c.42-16.87,9.2-29.85,19.59-28.97,1.63.14,3.21.61,4.7,1.37,7.22-10.05,18.72-16.76,31.79-17.38Z"/>
      <path class="cls-2" d="M123.63,86.66c-.23,0-.46-.02-.68-.02-12.12,0-22.85,6-29.45,15.22-4.34,6.05-6.9,13.49-6.9,21.54,0,20.3,16.28,36.76,36.36,36.76s36.36-16.46,36.36-36.76-15.91-36.37-35.67-36.74Z"/>
    </g>
  </g>
</svg>
