<svg xmlns="http://www.w3.org/2000/svg" viewBox="0 0 24 24"><path fill="#fff" d="M11.3618 16.9199c-.0383-.247-.056-.492-.0637-.7357h-1.2433l-2.4541-4.2505 2.4203-4.1921h5.8087L18.5672 3H7.3739l-5.083 8.8039L7.6002 21h6.3864c-1.3604-.8995-2.355-2.3416-2.6248-4.0801"/><path fill="#f93a30" d="M17.2909 11c-2.7614 0-5 2.2386-5 5s2.2386 5 5 5 5-2.2386 5-5-2.2386-5-5-5m3.2422 5.2995-2.3568 2.3568-.5925.5924q-.1172.1173-.293.1173c-.1758 0-.2148-.0391-.293-.1173l-.5924-.5924-2.3568-2.3568q-.1172-.1172-.1172-.293c0-.1758.0391-.2148.1172-.293l.5925-.5924q.1172-.1172.293-.1172c.1758 0 .2148.0391.293.1172l1.2305 1.2305v-3.2682q0-.1692.1237-.293.1237-.1236.293-.1237h.8333q.1693 0 .293.1237t.1237.293v3.2682l1.2305-1.2305q.1237-.1236.293-.1237c.1693-.0001.2105.0412.293.1237l.5924.5924q.1172.1172.1172.293c0 .1758-.0391.2148-.1172.293Z"/></svg>