<svg xmlns="http://www.w3.org/2000/svg" id="Layer_1" viewBox="0 0 24 24"><defs><linearGradient id="linear-gradient" x1="928.0714" x2="923.1188" y1="-1390.0707" y2="-1399.4018" gradientTransform="matrix(.5484 0 0 -.5484 -497.3643 -761.0426)" gradientUnits="userSpaceOnUse"><stop offset=".3352" stop-color="#020202"/><stop offset=".8098" stop-color="#020202" stop-opacity="0"/></linearGradient><linearGradient id="linear-gradient1" x1="942.8889" x2="935.5281" y1="-1423.6914" y2="-1410.3158" gradientTransform="matrix(.5484 0 0 -.5484 -501.6022 -772.6634)" gradientUnits="userSpaceOnUse"><stop offset=".0665" stop-color="#020202"/><stop offset=".4109" stop-color="#020202" stop-opacity="0"/></linearGradient><linearGradient id="linear-gradient2" x1="930.3521" x2="914.4308" y1="-1401.3331" y2="-1401.3331" gradientTransform="matrix(.5484 0 0 -.5484 -497.3643 -761.0426)" gradientUnits="userSpaceOnUse"><stop offset=".4827" stop-color="#020202"/><stop offset=".6928" stop-color="#020202" stop-opacity="0"/></linearGradient><linearGradient id="linear-gradient3" x1="915.6474" x2="922.4462" y1="-1420.8641" y2="-1420.8559" gradientTransform="matrix(.5484 0 0 -.5484 -497.3643 -761.0426)" gradientUnits="userSpaceOnUse"><stop offset=".3268" stop-color="#020202"/><stop offset=".8194" stop-color="#020202" stop-opacity="0"/></linearGradient><linearGradient id="linear-gradient4" x1="918.4805" x2="915.5525" y1="-1415.3901" y2="-1409.6522" gradientTransform="matrix(.5484 0 0 -.5484 -497.3643 -761.0426)" gradientUnits="userSpaceOnUse"><stop offset=".5023" stop-color="#020202"/><stop offset=".7545" stop-color="#020202" stop-opacity="0"/></linearGradient><linearGradient id="linear-gradient5" x1="925.3543" x2="914.5674" y1="-1419.786" y2="-1400.0646" gradientTransform="matrix(.5484 0 0 -.5484 -497.3643 -761.0426)" gradientUnits="userSpaceOnUse"><stop offset=".5593" stop-color="#020202"/><stop offset=".7624" stop-color="#020202" stop-opacity="0"/></linearGradient><linearGradient id="linear-gradient6" x1="924.5745" x2="917.2466" y1="-1396.3917" y2="-1420.192" gradientTransform="matrix(.5484 0 0 -.5484 -497.3643 -761.0426)" gradientUnits="userSpaceOnUse"><stop offset=".6182" stop-color="#020202"/><stop offset=".8324" stop-color="#020202" stop-opacity="0"/></linearGradient><linearGradient id="linear-gradient7" x1="923.4746" x2="927.0492" y1="-1422.2953" y2="-1415.8466" gradientTransform="matrix(.5484 0 0 -.5484 -497.3643 -761.0426)" gradientUnits="userSpaceOnUse"><stop offset=".422" stop-color="#020202"/><stop offset=".7868" stop-color="#020202" stop-opacity="0"/></linearGradient><style>.st7{fill:#0a8}</style></defs><path fill="#0cf" d="M11.0709 16.9199c-.0383-.247-.056-.492-.0637-.7357H9.7639l-2.4541-4.2505 2.4203-4.1921h5.8087L18.2763 3H7.0829L2 11.8039 7.3093 21h6.3864c-1.3604-.8995-2.355-2.3416-2.6248-4.0801"/><path fill="#f93a30" d="M17 11c-2.7614 0-5 2.2386-5 5s2.2386 5 5 5 5-2.2386 5-5-2.2386-5-5-5m3.2422 5.2995-2.3568 2.3568-.5925.5924q-.1172.1173-.293.1173c-.1758 0-.2148-.0391-.293-.1173l-.5924-.5924-2.3568-2.3568q-.1172-.1172-.1172-.293c0-.1758.0391-.2148.1172-.293l.5925-.5924q.1172-.1172.293-.1172c.1758 0 .2148.0391.293.1172l1.2305 1.2305v-3.2682q0-.1692.1237-.293.1237-.1236.293-.1237h.8333q.1693 0 .293.1237t.1237.293v3.2682l1.2305-1.2305q.1237-.1236.293-.1237c.1693-.0001.2105.0412.293.1237l.5924.5924q.1172.1172.1172.293c0 .1758-.0391.2148-.1172.293Z"/><path id="path6337" d="m7.0829 3 5.567 3.1216L18.2764 3z" class="st7"/><path id="path5111" fill="url(#linear-gradient)" d="M12.6499 6.1216 7.0829 3l2.6472 4.7415z"/><path id="path8399-8" fill="url(#linear-gradient1)" d="M7.0829 3h11.1934l-2.7375 4.7415H9.7301z"/><path id="path8399" d="M9.7301 7.7415 18.2764 3l-2.7375 4.7415H9.7302Z" class="st7"/><path id="path8568" d="m2 11.8039 5.2366-2.752.0732 2.8817z" class="st7"/><path id="path8467" d="M9.7301 7.7415 7.0829 3l.2268 8.9337z" class="st7"/><path id="path11629" fill="url(#linear-gradient2)" d="M7.0829 3 2 11.8039l5.3098.1298z"/><path id="path12053" d="m7.3096 15.3497-4.0593-1.3802L7.3093 21z" class="st7"/><path id="path13729" fill="url(#linear-gradient3)" d="M7.3098 15.3497 7.3094 21l2.4544-4.8158-2.4541-.8345Z"/><path id="path12347" fill="url(#linear-gradient4)" d="m3.2503 13.9695 4.0594-2.0358-5.3098-.1298z"/><path id="path13027" d="m3.2503 13.9695 6.5135 2.2147-2.454-4.2505z" class="st7"/><path id="path11882" fill="url(#linear-gradient5)" d="m2 11.8039 5.2366-2.752L7.0829 3z"/><path id="path13350" fill="url(#linear-gradient6)" d="m9.7638 16.1842-6.5135-2.2147L7.3093 21z"/><path fill="url(#linear-gradient7)" d="M11.0072 16.1842H9.7639l1.3072.7363-.0001-.0006c-.0383-.247-.056-.492-.0637-.7357Z"/><path d="m11.071 16.9205-1.3072-.7363L7.3093 21h6.3864c-1.3602-.8994-2.3549-2.3412-2.6247-4.0795" class="st7"/></svg>