<svg xmlns="http://www.w3.org/2000/svg" id="Layer_1" viewBox="0 0 128 128"><defs><linearGradient id="linear-gradient" x1="1126.0695" x2="1094.7032" y1="-1380.7382" y2="-1439.8358" gradientTransform="matrix(.5484 0 0 -.5484 -556.0706 -761.0426)" gradientUnits="userSpaceOnUse"><stop offset=".3352" stop-color="#020202"/><stop offset=".8098" stop-color="#020202" stop-opacity="0"/></linearGradient><linearGradient id="linear-gradient1" x1="1178.7003" x2="1132.0819" y1="-1480.6572" y2="-1395.9451" gradientTransform="matrix(.5484 0 0 -.5484 -560.3085 -772.6634)" gradientUnits="userSpaceOnUse"><stop offset=".0665" stop-color="#020202"/><stop offset=".4109" stop-color="#020202" stop-opacity="0"/></linearGradient><linearGradient id="linear-gradient2" x1="1140.514" x2="1039.6793" y1="-1452.067" y2="-1452.067" gradientTransform="matrix(.5484 0 0 -.5484 -556.0706 -761.0426)" gradientUnits="userSpaceOnUse"><stop offset=".4827" stop-color="#020202"/><stop offset=".6928" stop-color="#020202" stop-opacity="0"/></linearGradient><linearGradient id="linear-gradient3" x1="1047.3845" x2="1090.4438" y1="-1575.7636" y2="-1575.7115" gradientTransform="matrix(.5484 0 0 -.5484 -556.0706 -761.0426)" gradientUnits="userSpaceOnUse"><stop offset=".3268" stop-color="#020202"/><stop offset=".8194" stop-color="#020202" stop-opacity="0"/></linearGradient><linearGradient id="linear-gradient4" x1="1065.3275" x2="1046.7834" y1="-1541.0945" y2="-1504.7548" gradientTransform="matrix(.5484 0 0 -.5484 -556.0706 -761.0426)" gradientUnits="userSpaceOnUse"><stop offset=".5023" stop-color="#020202"/><stop offset=".7545" stop-color="#020202" stop-opacity="0"/></linearGradient><linearGradient id="linear-gradient5" x1="1108.8616" x2="1040.5443" y1="-1568.9352" y2="-1444.0333" gradientTransform="matrix(.5484 0 0 -.5484 -556.0706 -761.0426)" gradientUnits="userSpaceOnUse"><stop offset=".5593" stop-color="#020202"/><stop offset=".7624" stop-color="#020202" stop-opacity="0"/></linearGradient><linearGradient id="linear-gradient6" x1="1103.9229" x2="1057.5125" y1="-1420.7717" y2="-1571.5066" gradientTransform="matrix(.5484 0 0 -.5484 -556.0706 -761.0426)" gradientUnits="userSpaceOnUse"><stop offset=".6182" stop-color="#020202"/><stop offset=".8324" stop-color="#020202" stop-opacity="0"/></linearGradient><linearGradient id="linear-gradient7" x1="1096.957" x2="1119.5959" y1="-1584.8276" y2="-1543.986" gradientTransform="matrix(.5484 0 0 -.5484 -556.0706 -761.0426)" gradientUnits="userSpaceOnUse"><stop offset=".422" stop-color="#020202"/><stop offset=".7868" stop-color="#020202" stop-opacity="0"/></linearGradient><linearGradient id="linear-gradient8" x1="95.6667" x2="95.6667" y1="104.9426" y2="59.6143" gradientUnits="userSpaceOnUse"><stop offset=".1976" stop-color="#0fc"/><stop offset=".2704" stop-color="#00f8c6" stop-opacity=".9471"/><stop offset=".4067" stop-color="#00e6b8" stop-opacity=".8074"/><stop offset=".5919" stop-color="#00c9a1" stop-opacity=".5812"/><stop offset=".8161" stop-color="#00a281" stop-opacity=".273"/><stop offset="1" stop-color="#008066" stop-opacity="0"/></linearGradient><style>.st8{fill:#0a8}.st9{fill:#0cf}</style></defs><path d="M58.1158 95.1591c-.2428-1.5644-.3545-3.116-.4036-4.6592h-7.8745L34.2951 63.5798 49.624 37.03h36.7885L103.7499 7H32.8587L.6667 62.758 34.2924 121h40.4473c-8.6156-5.6971-14.9153-14.8298-16.6238-25.8409Z" class="st9"/><path id="path6337" d="M32.8586 7 68.116 26.7702 103.7502 7z" class="st8"/><path id="path5111" fill="url(#linear-gradient)" d="M68.116 26.7702 32.8586 7l16.7653 30.0298z"/><path id="path8399-8" fill="url(#linear-gradient1)" d="M32.8586 7h70.8916L86.4125 37.0298H49.6239z"/><path id="path8399" d="M49.6239 37.0298 103.7502 7 86.4125 37.0298z" class="st8"/><path d="M95.6667 57.6667C78.1776 57.6667 64 71.8443 64 89.3334s14.1776 31.6667 31.6667 31.6667 31.6667-14.1776 31.6667-31.6667-14.1776-31.6667-31.6667-31.6667m.7016 46.5104-4.1555 4.1555c-.5708.5708-1.264.8575-2.079.8575s-1.5082-.2867-2.0784-.8575l-4.1555-4.1555-11.0652-11.0645c-.5702-.5708-.8556-1.2621-.8556-2.0771s.2854-1.5082.8556-2.0784l4.1574-4.1574c.5702-.5708 1.2634-.8556 2.0784-.8556s1.5063.2848 2.0771.8556l8.9861 9.0171 20.05-20.0803c.5702-.5708 1.2634-.8556 2.0784-.8556s1.5082.2848 2.079.8556l4.1555 4.1555c.5702.5702.8556 1.2634.8556 2.0784s-.2854 1.5082-.8556 2.079l-22.1284 22.1278Z" class="st9"/><path id="path8568" d="M.6667 62.7582 33.8318 45.329l.4634 18.251z" class="st8"/><path id="path8467" d="M49.6239 37.0298 32.8586 7l1.4365 56.5799z" class="st8"/><path id="path11629" fill="url(#linear-gradient2)" d="M32.8586 7 .6667 62.7582l33.6285.8218-1.4365-56.5799Z"/><path id="path12053" d="M34.2942 85.215 8.5853 76.4736l25.7073 44.5263.0016-35.785Z" class="st8"/><path id="path13729" fill="url(#linear-gradient3)" d="M34.2951 85.215 34.2926 121l15.5448-30.5-15.5423-5.2849Z"/><path id="path12347" fill="url(#linear-gradient4)" d="M8.5853 76.4737 34.2951 63.58.6666 62.7582z"/><path id="path13027" d="M8.5853 76.4737 49.8374 90.5 34.2951 63.58z" class="st8"/><path id="path11882" fill="url(#linear-gradient5)" d="M.6667 62.7582 33.8318 45.329 32.8587 7z"/><path id="path13350" fill="url(#linear-gradient6)" d="M49.8374 90.5 8.5853 76.4737 34.2926 121z"/><path fill="url(#linear-gradient7)" d="M57.7123 90.5h-7.8745l8.2789 4.663q-.0004-.002-.0008-.0039c-.2428-1.5644-.3545-3.116-.4036-4.6592Z"/><path d="M58.1166 95.163 49.8377 90.5 34.2924 121h40.4473c-8.6144-5.6963-14.9141-14.8275-16.6231-25.837" class="st8"/><path fill="url(#linear-gradient8)" d="M95.6667 57.6667C78.1776 57.6667 64 71.8443 64 89.3334s14.1776 31.6667 31.6667 31.6667 31.6667-14.1776 31.6667-31.6667-14.1776-31.6667-31.6667-31.6667m.7016 46.5104-4.1555 4.1555c-.5708.5708-1.264.8575-2.079.8575s-1.5082-.2867-2.0784-.8575l-4.1555-4.1555-11.0652-11.0645c-.5702-.5708-.8556-1.2621-.8556-2.0771s.2854-1.5082.8556-2.0784l4.1574-4.1574c.5702-.5708 1.2634-.8556 2.0784-.8556s1.5063.2848 2.0771.8556l8.9861 9.0171 20.05-20.0803c.5702-.5708 1.2634-.8556 2.0784-.8556s1.5082.2848 2.079.8556l4.1555 4.1555c.5702.5702.8556 1.2634.8556 2.0784s-.2854 1.5082-.8556 2.079l-22.1284 22.1278Z"/></svg>