<svg xmlns="http://www.w3.org/2000/svg" id="Layer_1" viewBox="0 0 24 24"><defs><style>.st0{fill:#fff}</style></defs><path d="M11.3618 16.9199c-.0383-.247-.056-.492-.0637-.7357h-1.2433l-2.4541-4.2505 2.4203-4.1921h5.8087L18.5672 3H7.3739l-5.083 8.8039L7.6002 21h6.3864c-1.3604-.8995-2.355-2.3416-2.6248-4.0801" class="st0"/><path d="M17.2909 11c-2.7614 0-5 2.2386-5 5s2.2386 5 5 5 5-2.2386 5-5-2.2386-5-5-5m.1108 7.3437-.6561.6561q-.1352.1353-.3283.1354c-.1931.0001-.2381-.0453-.3282-.1354l-.6561-.6561-1.7471-1.747q-.135-.135-.1351-.328c-.0001-.193.0451-.2381.1351-.3282l.6564-.6564q.135-.1351.3282-.1351c.1932 0 .2378.045.328.1351l1.4189 1.4237 3.1658-3.1706q.135-.1351.3282-.1351c.1932 0 .2381.045.3283.1351l.6561.6561q.135.135.1351.3282c.0001.1932-.0451.2381-.1351.3283z" class="st0"/></svg>