<?xml version="1.0" encoding="UTF-8"?>
<svg id="svg2424" xmlns="http://www.w3.org/2000/svg" viewBox="0 0 166.16 166.19">
  <defs>
    <style>
      .cls-1 {
        fill: #dfdfdf;
        stroke-width: 0px;
      }
    </style>
  </defs>
  <g id="layer1">
    <g>
      <path class="cls-1" d="M148.34,156.35c5.65,2.96,11.56,6.23,17.82,9.84-3.5-6.44-6.73-12.43-9.83-18.18-2.27,3.14-4.97,5.94-7.99,8.33Z"/>
      <path class="cls-1" d="M120.65,80.93C99.5,40.04,94.63,27.15,83.06,0c-7.4,18.14-11.86,30-20.09,47.59,5.05,5.35,11.25,11.59,21.31,18.62-10.82-4.45-18.2-8.92-23.72-13.56-10.54,21.99-27.05,53.32-60.56,113.53,26.34-15.21,46.75-24.58,65.78-28.16-.82-3.51-1.28-7.32-1.25-11.28l.03-.84c.42-16.87,9.2-29.85,19.59-28.97,1.63.14,3.21.61,4.7,1.37,7.22-10.05,18.72-16.76,31.79-17.38Z"/>
    </g>
    <g>
      <path class="cls-1" d="M151.79,123.23c0,.07,1.09-.95,1.09-.88h6.35l-11.02,12.77-11.16-12.77h6.35c0-.07,1.39.95,1.39.88,0-12.18-9.41-22.03-21.01-22.03-5.25,0-10.07,2.04-13.72,5.4l-4.67-5.54c4.96-4.52,11.38-7.22,18.38-7.22,15.47,0,28.01,13.2,28.01,29.4Z"/>
      <path class="cls-1" d="M93.72,124.69c0-.07-1.09.95-1.09.88h-6.35l11.02-12.77,11.16,12.77h-6.35c0,.07-1.39-.95-1.39-.88,0,12.18,9.41,22.03,21.01,22.03,5.25,0,10.07-2.04,13.72-5.4l4.67,5.54c-4.96,4.52-11.38,7.22-18.38,7.22-15.47,0-28.01-13.2-28.01-29.4Z"/>
    </g>
  </g>
</svg>