<?xml version="1.0" encoding="UTF-8"?><svg id="a" xmlns="http://www.w3.org/2000/svg" viewBox="0 0 625.17 625.17"><defs><style>.b{fill:#fff;}</style></defs><circle class="b" cx="312.59" cy="312.59" r="312.59"/><path d="M312.59,111.6c-110.83,0-200.98,90.16-200.98,200.98s90.16,200.98,200.98,200.98,200.98-90.16,200.98-200.98-90.16-200.98-200.98-200.98h0Zm110.64,139.36l-143.56,143.56c-2.8,2.8-6.47,4.21-10.15,4.21s-7.35-1.41-10.15-4.21l-57.43-57.43c-5.61-5.61-5.61-14.69,0-20.3,5.61-5.61,14.69-5.61,20.3,0l47.28,47.27,133.41-133.41c5.61-5.61,14.69-5.61,20.3,0,5.61,5.61,5.61,14.69,0,20.3h0Z"/></svg>