<?xml version="1.0" encoding="UTF-8"?><svg id="a" xmlns="http://www.w3.org/2000/svg" viewBox="0 0 625.17 625.17"><defs><style>.b{fill:#fff;}</style></defs><circle class="b" cx="312.59" cy="312.59" r="312.59"/><path d="M168.44,409.56v17.54c0,8.2-6.56,14.85-14.79,14.85s-14.78-6.67-14.78-14.85v-59.07c0-4.07,1.66-7.76,4.34-10.43,2.66-2.7,6.35-4.35,10.45-4.35h59.07c8.2,0,14.85,6.56,14.85,14.79s-6.67,14.78-14.85,14.78h-26.05c24.65,44.1,71.8,73.92,125.91,73.92,79.61,0,144.14-64.54,144.14-144.14,0-1.24-.02-2.47-.05-3.7h29.58c.02,1.23,.04,2.46,.04,3.7,0,95.94-77.77,173.71-173.71,173.71-60.03,0-112.94-30.45-144.14-76.74h0ZM456.73,215.61v-17.54c0-8.2,6.56-14.85,14.78-14.85s14.78,6.67,14.78,14.85v59.07c0,4.07-1.66,7.76-4.33,10.43-2.66,2.7-6.35,4.35-10.45,4.35h-59.07c-8.2,0-14.85-6.56-14.85-14.78s6.67-14.79,14.85-14.79h26.06c-24.65-44.1-71.8-73.92-125.91-73.92-78.38,0-142.14,62.55-144.1,140.44h-29.57c1.97-94.23,78.97-170.01,173.68-170.01,60.02,0,112.94,30.45,144.14,76.74h0Z"/></svg>