<?xml version="1.0" encoding="UTF-8"?>
<svg id="svg2424" xmlns="http://www.w3.org/2000/svg" viewBox="0 0 166.16 166.19">
  <defs>
    <style>
      .cls-1 {
        fill: #dfdfdf;
      }

      .cls-1, .cls-2 {
        stroke-width: 0px;
      }

      .cls-2 {
        fill: #ec4d3d;
      }
    </style>
  </defs>
  <g id="layer1">
    <g id="g2424">
      <g>
        <path class="cls-1" d="M147.35,155.82c5.94,3.09,12.19,6.54,18.81,10.36-3.78-6.97-7.27-13.42-10.59-19.59-2.18,3.54-4.97,6.66-8.22,9.22Z"/>
        <path class="cls-1" d="M125.52,92.86c.46,0,.91.02,1.36.03C100.32,42.26,95.69,29.64,83.06,0c-7.4,18.14-11.86,30-20.09,47.59,5.05,5.35,11.25,11.59,21.31,18.62-10.82-4.45-18.2-8.92-23.72-13.56-10.54,21.99-27.05,53.32-60.56,113.53,26.34-15.21,46.75-24.58,65.78-28.16-.82-3.51-1.28-7.32-1.25-11.28l.03-.84c.42-16.87,9.2-29.85,19.59-28.97,5.2.44,9.83,4.27,13.1,10.1,6.43-8.61,16.7-14.18,28.27-14.18Z"/>
      </g>
      <circle class="cls-2" cx="125.88" cy="127.95" r="31.39"/>
      <g>
        <path class="cls-1" d="M149.58,127.52c0,.06.91-.79.91-.73h5.26l-9.13,10.58-9.25-10.58h5.26c0-.06,1.15.79,1.15.73,0-10.09-7.8-18.25-17.4-18.25-4.35,0-8.34,1.69-11.36,4.47l-3.87-4.59c4.11-3.75,9.43-5.98,15.23-5.98,12.81,0,23.21,10.94,23.21,24.35Z"/>
        <path class="cls-1" d="M101.47,128.73c0-.06-.91.79-.91.73h-5.26l9.13-10.58,9.25,10.58h-5.26c0,.06-1.15-.79-1.15-.73,0,10.09,7.8,18.25,17.4,18.25,4.35,0,8.34-1.69,11.36-4.47l3.87,4.59c-4.11,3.75-9.43,5.98-15.23,5.98-12.81,0-23.21-10.94-23.21-24.35Z"/>
      </g>
    </g>
  </g>
</svg>