<?xml version="1.0" encoding="UTF-8"?><svg id="a" xmlns="http://www.w3.org/2000/svg" viewBox="0 0 625.17 625.17"><defs><style>.b{fill:#fff;}</style></defs><circle class="b" cx="312.59" cy="312.59" r="312.59"/><g><path d="M434.61,204.58c0,19.09-15.48,34.57-34.57,34.57s-34.57-15.48-34.57-34.57,15.48-34.57,34.57-34.57,34.57,15.48,34.57,34.57"/><path d="M465.23,402.68c-32.76-33.84-47.39-90.8-50.75-151.21h0c-14.28,4.93-30.03,3.15-42.84-4.85-12.82-8-21.34-21.36-23.18-36.35-1.84-15,3.18-30.02,13.68-40.89-10.08-4.96-20.6-8.96-31.43-11.95-.28-6.28-3.79-11.96-9.29-15.02-5.49-3.06-12.17-3.06-17.66,0-5.49,3.06-9,8.74-9.29,15.02-28.71,8.03-81.61,29.88-83.26,82.16-2.05,64.74-16.37,127.04-51.27,163.08h0c-3.8,3.91-5.94,9.15-5.98,14.6-.03,5.46,2.05,10.71,5.8,14.67,3.75,3.96,8.9,6.31,14.35,6.57,.26,.01,.52,.02,.79,.03,15.08,.43,57.66,.37,91.51,.24v.1h0c0,16.5,8.8,31.74,23.08,39.99,14.29,8.25,31.89,8.25,46.17,0,14.28-8.25,23.08-23.49,23.08-39.99v-.1c33.85,.13,76.43,.19,91.51-.24,.27,0,.53-.02,.79-.03h0c5.45-.26,10.59-2.61,14.35-6.57,3.76-3.96,5.84-9.21,5.8-14.67-.03-5.46-2.17-10.69-5.98-14.6h0Z"/></g></svg>