<?xml version="1.0" encoding="UTF-8"?><svg id="a" xmlns="http://www.w3.org/2000/svg" viewBox="0 0 625.17 625.17"><defs><style>.b{fill:#fff;}</style></defs><circle class="b" cx="312.59" cy="312.59" r="312.59"/><g><path d="M455.55,212.1h-128.65v122.73l47.07-47.07c5.59-5.59,14.62-5.59,20.21,0s5.59,14.62,0,20.21l-71.46,71.46c-1.32,1.33-2.9,2.37-4.66,3.1-1.74,.71-3.6,1.1-5.46,1.1s-3.72-.39-5.46-1.1c-1.76-.73-3.33-1.77-4.66-3.1l-71.46-71.46c-5.59-5.59-5.59-14.62,0-20.21s14.62-5.59,20.21,0l47.07,47.07v-122.73H169.66c-23.64,0-42.88,19.24-42.88,42.88v185.83c0,23.64,19.24,42.88,42.88,42.88H455.55c23.64,0,42.88-19.24,42.88-42.88V254.98c0-23.64-19.24-42.88-42.88-42.88h0Z"/><path d="M326.9,97.74c0-7.91-6.4-14.3-14.3-14.3s-14.3,6.39-14.3,14.3v114.35h28.59V97.74Z"/></g></svg>